<svg xmlns="http://www.w3.org/2000/svg" xmlns:xlink="http://www.w3.org/1999/xlink" viewBox="0 0 180.76 180.27"><defs><style>.cls-1{isolation:isolate;}.cls-2{fill:#fff;opacity:0.3;}.cls-2,.cls-6{mix-blend-mode:lighten;}.cls-3{fill:#e6e6e6;}.cls-4{fill:#ccc;}.cls-5{fill:#b3b3b3;}.cls-6{opacity:0.49;fill:url(#Dégradé_sans_nom_11);}</style><linearGradient id="Dégradé_sans_nom_11" x1="42.29" y1="8.74" x2="174.19" y2="116.57" gradientTransform="translate(-9.42 34.75)" gradientUnits="userSpaceOnUse"><stop offset="0" stop-color="#e6e6e6"/><stop offset="0.58" stop-color="#c6c6c6"/><stop offset="0.9" stop-color="#b3b3b3"/></linearGradient></defs><g class="cls-1"><g id="Calque_2" data-name="Calque 2"><g id="Lune"><ellipse class="cls-2" cx="90.38" cy="90.13" rx="90.38" ry="90.13"/><path class="cls-3" d="M112.55,130.79c25.72-29.82,36.06-67,34.31-104.43A85.19,85.19,0,1,0,67.68,172.13Q75.43,166.45,83,160A220.94,220.94,0,0,0,112.55,130.79Z"/><path class="cls-4" d="M146.86,26.36c1.75,37.45-8.59,74.61-34.31,104.43A220.94,220.94,0,0,1,83,160q-7.55,6.43-15.3,12.1A85.19,85.19,0,0,0,146.86,26.36Z"/><path class="cls-5" d="M74.61,110.93a16.13,16.13,0,0,0-23.22,14.49,16.32,16.32,0,0,0,.34,3.29C54.42,118.45,64.26,111.57,74.61,110.93Z"/><path class="cls-4" d="M67.52,141.55a16.13,16.13,0,0,0,7.09-30.62c-10.35.64-20.19,7.52-22.88,17.78A16.13,16.13,0,0,0,67.52,141.55Z"/><path class="cls-5" d="M55.76,43.43a11.69,11.69,0,0,0,1,4.77,17.41,17.41,0,0,1,3.31-9.5,19.63,19.63,0,0,1,9.39-6.87,11.44,11.44,0,0,0-2-.16A11.76,11.76,0,0,0,55.76,43.43Z"/><path class="cls-4" d="M60.09,38.7a17.41,17.41,0,0,0-3.31,9.5,11.76,11.76,0,1,0,12.7-16.37A19.63,19.63,0,0,0,60.09,38.7Z"/><path class="cls-4" d="M26.7,92.74a10.59,10.59,0,1,0,7.66-17c-.77.69-1.51,1.41-2.23,2.17C28.28,82,26.72,87.26,26.7,92.74Z"/><path class="cls-5" d="M25.21,90.05a10.8,10.8,0,0,0,1.49,2.69c0-5.48,1.58-10.77,5.43-14.82.72-.76,1.46-1.48,2.23-2.17a10.6,10.6,0,0,0-9.15,14.3Z"/><circle class="cls-6" cx="90.22" cy="90.37" r="85.18"/></g></g></g></svg>