<svg xmlns="http://www.w3.org/2000/svg" viewBox="0 0 295.24 256.83"><defs><style>.cls-1{isolation:isolate;}.cls-2{fill:#d8d8d8;}.cls-3{fill:#e5e5e5;}.cls-4{fill:#89f7f7;}.cls-5{fill:#4fccd3;}.cls-6{fill:#61e5f2;}.cls-7{fill:#7feef4;mix-blend-mode:lighten;opacity:0.5;}.cls-8{fill:#2e8da3;}.cls-9{fill:#08454c;}.cls-10{fill:#cafdff;}</style></defs><g class="cls-1"><g id="Calque_2" data-name="Calque 2"><g id="Robot"><path class="cls-2" d="M256.16,95.4c-16.6,2.84-27.6,19.49-24.57,37.18s18.95,29.73,35.55,26.88a28.81,28.81,0,0,0,13-5.77c-2-21.26-8.88-41.41-23.95-58.29Z"/><path class="cls-3" d="M291.71,122.28c-3-17.69-18.94-29.72-35.54-26.88,15.07,16.88,22,37,23.95,58.29C289,146.73,293.85,134.77,291.71,122.28Z"/><path class="cls-2" d="M280.65,162.22l-35.83,6.14,3.38,19.71,31.92-5.47A178.36,178.36,0,0,0,280.65,162.22Z"/><path class="cls-3" d="M290.16,160.59l-9.51,1.63a178.36,178.36,0,0,1-.53,20.38l13.42-2.3Z"/><path class="cls-2" d="M263.86,196.55l9,22.81,1.61-.27c1.79-8.26,3.34-16.67,4.45-25.12Z"/><path class="cls-3" d="M287.51,192.5,278.9,194c-1.11,8.45-2.66,16.86-4.45,25.12l13.18-2.26Z"/><ellipse class="cls-4" cx="282.08" cy="233.71" rx="9.37" ry="7.31" transform="translate(-66.81 122.05) rotate(-21.89)"/><path class="cls-5" d="M292.89,256.83c-3.31-3.63-3.42-6.29-2.38-8.86,1.13-2.83,3.54-5.57,4.47-9.43,1.24-5.13-1.81-14.09-13-12.28,5.22.54,8.78,6.74,5.78,12.72-.39-4.47-3.65-6.12-6.05-4.08a3.44,3.44,0,0,1-5.74-1.48,4.51,4.51,0,0,1,.61-4.78,12.76,12.76,0,0,0-4.8,15c2.23,5.55,7.48,4.33,6.86,10,2.86-1.45,3.1-3.81,1.53-6.88a2.74,2.74,0,0,1,2.6-4.05c1.63.28,2.21,1.82,1.53,3.43C282.84,249.53,284.13,255.5,292.89,256.83Z"/><path class="cls-3" d="M4.92,122.28a33.64,33.64,0,0,0,3.33,21.48c1.38-16.95,7-34.53,17.74-47.13A32.78,32.78,0,0,0,4.92,122.28Z"/><path class="cls-2" d="M40.47,95.4A28.84,28.84,0,0,0,26,96.63c-10.7,12.6-16.36,30.18-17.74,47.13a29.74,29.74,0,0,0,21.24,15.7C46.09,162.31,62,150.27,65,132.58S57.07,98.24,40.47,95.4Z"/><rect class="cls-2" x="4.45" y="164.33" width="46" height="20" transform="translate(29.85 -2.13) rotate(9.73)"/><polygon class="cls-2" points="23.79 219.36 9 216.83 9.11 192.5 32.77 196.55 23.79 219.36"/><ellipse class="cls-4" cx="13.16" cy="232.71" rx="7.31" ry="9.37" transform="translate(-207.67 158.14) rotate(-68.11)"/><path class="cls-5" d="M10.92,245.12c-.69-1.61-.11-3.16,1.52-3.43a2.73,2.73,0,0,1,2.6,4.05c-1.57,3.07-1.33,5.43,1.53,6.87-.62-5.65,4.64-4.43,6.87-10a12.78,12.78,0,0,0-4.81-15,4.51,4.51,0,0,1,.61,4.78,3.43,3.43,0,0,1-5.74,1.47c-2.4-2-5.66-.38-6,4.09-3-6,.56-12.18,5.78-12.72C2.07,223.45-1,232.41.26,237.54c.93,3.85,3.34,6.6,4.47,9.43,1,2.56.93,5.23-2.38,8.86C11.11,254.5,12.4,248.53,10.92,245.12Z"/><path class="cls-2" d="M81.14,29.39C52,56,33.3,97.76,45.11,141.55,64.41,213.07,91.72,248,149.22,248c37.18,0,63.3-14.42,81.33-44.05-12-39.79-27.16-78.06-56.64-108.95C147.1,67.6,115.69,44.82,81.14,29.39Z"/><path class="cls-3" d="M149.22,0c-23.33,0-48.16,11.18-68.08,29.39,34.55,15.43,66,38.21,92.77,65.61,29.48,30.89,44.67,69.16,56.64,109,9.86-16.2,17.3-36.94,22.79-62.4C269.72,65.51,206.72,0,149.22,0Z"/><path class="cls-6" d="M238.34,139.5c-13.26,61.56-39.84,91-89,91s-72.5-29.86-89-91c-17-63,39.85-121,89-121S252.34,74.5,238.34,139.5Z"/><path class="cls-7" d="M149.34,18.5c-18.58,0-38.27,8.3-54.64,22,54.54,41.21,100.4,95.16,118.45,160.7,11.34-14.8,19.5-35.29,25.19-61.72C252.34,74.5,198.5,18.5,149.34,18.5Z"/><rect class="cls-8" x="145.41" y="45.07" width="11.5" height="40.87" transform="translate(302.32 131.01) rotate(-180)"/><polygon class="cls-8" points="151.16 38.98 156.73 40.69 151.16 34.5 145.59 40.69 151.16 38.98"/><polygon class="cls-8" points="111.57 144.76 104.91 135.94 111.57 168 118.23 135.94 111.57 144.76"/><rect class="cls-8" x="145.41" y="52.18" width="11.5" height="40.87"/><polygon class="cls-8" points="151.16 100.14 145.59 98.44 151.16 104.63 156.73 98.44 151.16 100.14"/><polygon class="cls-8" points="188.16 150.64 182.59 148.94 188.16 155.13 193.73 148.94 188.16 150.64"/><polygon class="cls-8" points="188.16 97.42 193.73 99.13 188.16 92.94 182.59 99.13 188.16 97.42"/><ellipse class="cls-9" cx="188.56" cy="124.15" rx="8.6" ry="22.15"/><ellipse class="cls-9" cx="111.56" cy="124.15" rx="8.6" ry="22.15"/><ellipse class="cls-10" cx="111.56" cy="113" rx="6.46" ry="11"/><ellipse class="cls-10" cx="188.56" cy="113" rx="6.46" ry="11"/></g></g></g></svg>