<svg xmlns="http://www.w3.org/2000/svg" viewBox="0 0 165.39 165.39"><defs><style>.cls-1{fill:#ffe600;}.cls-2{fill:#f7cd00;}</style></defs><g id="Calque_2" data-name="Calque 2"><g id="Soleil"><path class="cls-1" d="M143.62,56.5C133,35,109.75,20,82.69,20c-37,0-67,28-67,62.5,0,31.82,25.51,58.07,58.48,62,.45-.16.9-.31,1.34-.48C113.31,129.18,137.35,94.58,143.62,56.5Z"/><path class="cls-2" d="M143.62,56.5c-6.27,38.08-30.31,72.68-68.11,87.5-.44.17-.89.32-1.34.48a72.72,72.72,0,0,0,8.52.52c37,0,67-28,67-62.5A58.75,58.75,0,0,0,143.62,56.5Z"/><polygon class="cls-1" points="82.69 11.15 103.33 15.39 82.69 0 62.06 15.39 82.69 11.15"/><polygon class="cls-1" points="62.06 150 82.69 165.39 103.33 150 82.69 154.23 62.06 150"/><polygon class="cls-1" points="11.15 82.69 15.39 62.06 0 82.69 15.39 103.33 11.15 82.69"/><polygon class="cls-1" points="154.23 82.69 150 62.06 165.39 82.69 150 103.33 154.23 82.69"/><polygon class="cls-1" points="32.11 32.11 49.69 20.51 24.22 24.22 20.51 49.69 32.11 32.11"/><polygon class="cls-1" points="133.28 133.28 144.88 115.69 141.17 141.17 115.69 144.88 133.28 133.28"/><polygon class="cls-1" points="32.11 133.28 20.51 115.69 24.22 141.17 49.69 144.88 32.11 133.28"/><polygon class="cls-1" points="133.28 32.11 115.69 20.51 141.17 24.22 144.88 49.69 133.28 32.11"/></g></g></svg>